<svg width="132" height="47" viewBox="0 0 132 47" fill="none" xmlns="http://www.w3.org/2000/svg">
<g clip-path="url(#clip0_11_94)">
<path d="M65.7457 14.5185L72.0228 14.1282C72.1597 15.1391 72.4367 15.9088 72.8537 16.4371C73.535 17.2935 74.5059 17.7217 75.7666 17.7217C76.7073 17.7217 77.4332 17.5033 77.9441 17.0664C78.1781 16.885 78.3682 16.6541 78.5004 16.3904C78.6326 16.1268 78.7036 15.8372 78.7082 15.5429C78.7043 15.2607 78.6381 14.9828 78.5144 14.7286C78.3907 14.4744 78.2123 14.2501 77.9919 14.0714C77.5143 13.6393 76.3882 13.23 74.6134 12.8436C71.7196 12.2001 69.6559 11.3437 68.4223 10.2744C67.822 9.7762 67.3426 9.15043 67.0198 8.44354C66.697 7.73666 66.539 6.96681 66.5575 6.19115C66.5621 5.095 66.8944 4.02479 67.5126 3.1157C68.2185 2.09108 69.2158 1.29732 70.3777 0.835133C71.6511 0.281551 73.4021 0.00476074 75.6305 0.00476074C78.3588 0.00476074 80.4392 0.507873 81.8718 1.5141C83.3043 2.52032 84.1567 4.11956 84.4289 6.3118L78.2091 6.67139C78.05 5.7251 77.703 5.03273 77.1681 4.59428C76.6333 4.15583 75.9011 3.9374 74.9715 3.93897C74.2051 3.93897 73.6273 4.10221 73.2405 4.42395C73.0578 4.56315 72.9101 4.74239 72.809 4.94761C72.708 5.15283 72.6562 5.37846 72.6579 5.60681C72.6637 5.78402 72.7096 5.95766 72.7923 6.1149C72.8749 6.27215 72.9922 6.40897 73.1354 6.51526C73.4458 6.79441 74.1836 7.05464 75.3488 7.29595C78.233 7.91104 80.3023 8.53401 81.5566 9.16488C82.8109 9.79574 83.7182 10.5772 84.2785 11.5093C84.8503 12.4549 85.1454 13.5393 85.1309 14.6415C85.1377 15.9761 84.7429 17.2825 83.9967 18.3936C83.2202 19.5521 82.1154 20.4575 80.8212 20.9959C79.4603 21.5873 77.7459 21.8831 75.6783 21.8831C72.0475 21.8831 69.5325 21.1907 68.1333 19.8059C66.7342 18.4212 65.9383 16.6587 65.7457 14.5185V14.5185ZM1.49704 21.5282V0.361986H12.4945C14.5335 0.361986 16.0918 0.534685 17.1694 0.880082C18.2309 1.21601 19.1486 1.89382 19.7767 2.80579C20.4604 3.81802 20.8084 5.01629 20.7724 6.23373C20.8 7.29614 20.536 8.34605 20.0083 9.27133C19.502 10.1291 18.785 10.846 17.9239 11.3555C17.2 11.7512 16.4188 12.0337 15.6079 12.193C16.2147 12.3701 16.7928 12.6321 17.3246 12.9713C17.7199 13.2969 18.0757 13.6668 18.3847 14.0738C18.7325 14.4782 19.0403 14.9147 19.304 15.3773L22.4986 21.5282H15.0421L11.5179 15.0532C11.0706 14.2157 10.6727 13.6716 10.3241 13.4208C9.84908 13.0947 9.28318 12.9235 8.70529 12.9311H8.11794V21.5282H1.49704ZM8.11794 8.93303H10.9067C11.4969 8.88937 12.0819 8.79277 12.6544 8.64441C13.0823 8.56307 13.4639 8.32591 13.7241 7.97964C13.9992 7.62987 14.1458 7.19761 14.1395 6.75419C14.1575 6.45982 14.1077 6.16525 13.994 5.89271C13.8802 5.62018 13.7055 5.37682 13.4829 5.18098C13.0468 4.81508 12.2262 4.63213 11.0213 4.63213H8.11794V8.93303ZM0 39.6402L6.27707 39.2523C6.41396 40.2632 6.69093 41.0329 7.10797 41.5612C7.78128 42.4176 8.75464 42.8458 10.028 42.8458C10.9688 42.8458 11.6946 42.6266 12.2056 42.1881C12.4395 42.0067 12.6296 41.7758 12.7618 41.5121C12.894 41.2485 12.965 40.9589 12.9696 40.6646C12.9654 40.3825 12.8991 40.1046 12.7754 39.8505C12.6517 39.5964 12.4735 39.372 12.2533 39.1931C11.7758 38.761 10.6496 38.3525 8.87481 37.9677C5.98101 37.321 3.9173 36.4646 2.68369 35.3985C2.08347 34.8997 1.60421 34.2735 1.28142 33.5662C0.958623 32.859 0.800565 32.0888 0.818956 31.3129C0.824241 30.2168 1.15652 29.1468 1.77401 28.2374C2.47997 27.2128 3.4772 26.419 4.63916 25.9568C5.91256 25.4033 7.66349 25.1265 9.89194 25.1265C12.6202 25.1265 14.7006 25.6296 16.1332 26.6358C17.5658 27.642 18.4182 29.2413 18.6904 31.4335L12.4825 31.7955C12.3233 30.8492 11.9763 30.156 11.4415 29.716C10.9067 29.276 10.1753 29.0599 9.24728 29.0678C8.48165 29.0678 7.90464 29.2255 7.51625 29.5409C7.33355 29.6801 7.18588 29.8594 7.0848 30.0646C6.98372 30.2698 6.932 30.4954 6.93367 30.7238C6.93911 30.9014 6.98487 31.0755 7.06754 31.2332C7.15021 31.3909 7.26767 31.5281 7.4112 31.6346C7.72159 31.9138 8.45937 32.1732 9.62453 32.4129C12.5088 33.028 14.5781 33.651 15.8324 34.2819C17.0867 34.9127 17.994 35.6942 18.5543 36.6263C19.1257 37.572 19.4208 38.6564 19.4066 39.7585C19.4138 41.0932 19.0189 42.3996 18.2725 43.5106C17.4959 44.6691 16.3912 45.5744 15.097 46.1129C13.736 46.7043 12.0217 47 9.95402 47C6.32323 47 3.80827 46.3077 2.40912 44.9229C1.00997 43.5382 0.206928 41.7773 0 39.6402ZM38.9183 37.9819L44.7012 39.7136C44.3813 41.1672 43.7557 42.5376 42.8651 43.7353C42.0535 44.7936 40.9861 45.6325 39.7612 46.1744C38.5228 46.7217 36.9469 46.9953 35.0337 46.9953C32.7129 46.9953 30.8171 46.6617 29.3463 45.9946C27.8756 45.3275 26.6022 44.1517 25.5261 42.4673C24.4565 40.7845 23.9224 38.6309 23.924 36.0065C23.924 32.5083 24.8632 29.8185 26.7414 27.937C28.6197 26.0554 31.2779 25.1154 34.7161 25.117C37.4078 25.117 39.5224 25.6564 41.06 26.7352C42.5977 27.8139 43.7405 29.47 44.4887 31.7032L38.6629 32.9878C38.5261 32.4843 38.3101 32.0053 38.023 31.5684C37.6701 31.0829 37.2062 30.6873 36.6692 30.4139C36.1127 30.1391 35.4978 30.0004 34.8761 30.0093C33.3814 30.0093 32.2362 30.6055 31.4403 31.7978C30.8354 32.6826 30.5338 34.0713 30.5354 35.9639C30.5354 38.3075 30.8951 39.9147 31.6146 40.7852C32.3341 41.6558 33.344 42.0903 34.6445 42.0888C35.9052 42.0888 36.8602 41.7379 37.5096 41.036C38.1591 40.3342 38.6286 39.3161 38.9183 37.9819V37.9819ZM49.7844 25.4837H56.3814V32.8837H63.5921V25.4837H70.2177V46.6404H63.5921V38.0883H56.3814V46.6475H49.7844V25.4837ZM74.3245 36.0751C74.3245 32.6243 75.2954 29.9352 77.2374 28.0079C79.1793 26.0806 81.8853 25.1186 85.3553 25.1217C88.9081 25.1217 91.6459 26.068 93.5688 27.9606C95.4916 29.8532 96.4554 32.5005 96.4602 35.9024C96.4602 38.3769 96.0399 40.4052 95.1995 41.987C94.3816 43.5481 93.1144 44.8334 91.5584 45.6799C89.9666 46.56 87.9881 47 85.6227 47C83.216 47 81.2263 46.6199 79.6537 45.8597C78.0379 45.0664 76.7009 43.8092 75.8167 42.252C74.8203 40.6086 74.3229 38.5496 74.3245 36.0751V36.0751ZM80.9215 36.1058C80.9215 38.2429 81.3194 39.7774 82.1153 40.7095C82.9112 41.6416 84.0015 42.1077 85.3863 42.1077C86.8046 42.1077 87.9021 41.6511 88.6789 40.7379C89.4557 39.8248 89.8441 38.1845 89.8441 35.8172C89.8441 33.8253 89.4382 32.3696 88.6264 31.4501C87.8146 30.5306 86.7147 30.0716 85.3267 30.0732C84.7232 30.0517 84.1226 30.1657 83.5698 30.4065C83.017 30.6474 82.5263 31.009 82.1344 31.4643C81.3274 32.4106 80.9231 33.9577 80.9215 36.1058V36.1058Z" fill="#202020"/>
<path d="M93.6619 36.0751C93.6619 32.6242 94.6328 29.9352 96.5748 28.0079C98.5167 26.0806 101.223 25.1186 104.693 25.1217C108.249 25.1217 110.987 26.068 112.909 27.9606C114.83 29.8532 115.79 32.5012 115.79 35.9047C115.79 38.3793 115.371 40.4075 114.532 41.9894C113.714 43.5499 112.446 44.8351 110.891 45.6823C109.299 46.5623 107.321 47.0024 104.955 47.0024C102.547 47.0024 100.557 46.6223 98.9863 45.8621C97.3704 45.0681 96.0327 43.8112 95.147 42.2543C94.1569 40.6094 93.6619 38.5496 93.6619 36.0751V36.0751ZM100.261 36.1058C100.261 38.2429 100.659 39.7774 101.455 40.7095C102.251 41.6416 103.343 42.1085 104.731 42.11C106.149 42.11 107.247 41.6535 108.023 40.7403C108.8 39.8271 109.189 38.1869 109.189 35.8196C109.189 33.8276 108.784 32.3719 107.973 31.4524C107.163 30.5329 106.063 30.074 104.674 30.0756C104.069 30.0525 103.467 30.1655 102.913 30.406C102.359 30.6465 101.867 31.0083 101.474 31.4642C100.664 32.4105 100.26 33.9577 100.261 36.1058V36.1058Z" fill="#202020"/>
<path d="M115.103 25.4836H121.702V41.431H132V46.6357H115.103V25.4836Z" fill="#202020"/>
</g>
<defs>
<clipPath id="clip0_11_94">
<rect width="132" height="47" fill="white"/>
</clipPath>
</defs>
</svg>
